<svg width="177" height="70" viewBox="0 0 177 70" fill="none" xmlns="http://www.w3.org/2000/svg">
<path d="M10.782 35C10.35 35 10.02 34.892 9.792 34.676C9.564 34.448 9.45 34.118 9.45 33.686V13.652H2.25C1.818 13.652 1.488 13.544 1.26 13.328C1.032 13.1 0.918 12.77 0.918 12.338C0.918 11.906 1.032 11.576 1.26 11.348C1.488 11.12 1.818 11.006 2.25 11.006H19.314C19.746 11.006 20.07 11.12 20.286 11.348C20.514 11.576 20.628 11.906 20.628 12.338C20.628 12.77 20.514 13.1 20.286 13.328C20.07 13.544 19.746 13.652 19.314 13.652H12.096V33.686C12.096 34.094 11.982 34.418 11.754 34.658C11.526 34.886 11.202 35 10.782 35ZM26.0148 14.102C24.9828 14.102 24.4668 13.574 24.4668 12.518V11.546C24.4668 10.514 24.9828 9.998 26.0148 9.998H26.9868C27.9828 9.998 28.4808 10.514 28.4808 11.546V12.518C28.4808 13.574 27.9828 14.102 26.9868 14.102H26.0148ZM26.5008 35C25.6128 35 25.1688 34.556 25.1688 33.668V18.476C25.1688 17.6 25.6128 17.162 26.5008 17.162C27.3768 17.162 27.8148 17.6 27.8148 18.476V33.668C27.8148 34.556 27.3768 35 26.5008 35ZM54.7217 17.144C56.8817 17.144 58.4297 17.666 59.3657 18.71C60.3017 19.754 60.7697 21.476 60.7697 23.876V33.686C60.7697 34.562 60.3317 35 59.4557 35C58.5677 35 58.1237 34.562 58.1237 33.686V23.876C58.1237 22.436 57.8597 21.398 57.3317 20.762C56.8037 20.114 55.9337 19.79 54.7217 19.79H53.2457C51.8057 19.79 50.7737 20.114 50.1497 20.762C49.5377 21.398 49.2317 22.436 49.2317 23.876V33.686C49.2317 34.562 48.7937 35 47.9177 35C47.0297 35 46.5857 34.562 46.5857 33.686V23.876C46.5857 22.436 46.3217 21.398 45.7937 20.762C45.2657 20.114 44.3957 19.79 43.1837 19.79H41.7077C40.2677 19.79 39.2357 20.114 38.6117 20.762C37.9997 21.398 37.6937 22.436 37.6937 23.876V33.686C37.6937 34.562 37.2557 35 36.3797 35C35.4917 35 35.0477 34.562 35.0477 33.686V18.476C35.0477 17.6 35.4917 17.162 36.3797 17.162C37.2557 17.162 37.6937 17.6 37.6937 18.476V19.502C38.2937 18.662 38.9657 18.062 39.7097 17.702C40.4657 17.33 41.3837 17.144 42.4637 17.144H43.1837C44.5997 17.144 45.7157 17.36 46.5317 17.792C47.3597 18.212 47.9957 18.896 48.4397 19.844C49.0397 18.872 49.7057 18.182 50.4377 17.774C51.1697 17.354 52.1057 17.144 53.2457 17.144H54.7217ZM69.5807 27.152V28.16C69.5807 29.756 69.8807 30.854 70.4807 31.454C71.0807 32.054 72.1907 32.354 73.8107 32.354H76.7627C78.0827 32.354 79.0487 32.216 79.6607 31.94C80.2847 31.652 80.6867 31.154 80.8667 30.446C80.9627 30.05 81.1127 29.744 81.3167 29.528C81.5327 29.312 81.8507 29.204 82.2707 29.204C82.7147 29.204 83.0507 29.324 83.2787 29.564C83.5067 29.792 83.5847 30.128 83.5127 30.572C83.2847 32.072 82.6067 33.188 81.4787 33.92C80.3627 34.64 78.7907 35 76.7627 35H73.8107C71.4707 35 69.7367 34.442 68.6087 33.326C67.4927 32.21 66.9347 30.488 66.9347 28.16V24.02C66.9347 21.644 67.4927 19.904 68.6087 18.8C69.7367 17.684 71.4707 17.138 73.8107 17.162H76.7627C79.1027 17.162 80.8307 17.72 81.9467 18.836C83.0627 19.94 83.6207 21.668 83.6207 24.02V25.82C83.6207 26.708 83.1827 27.152 82.3067 27.152H69.5807ZM73.8107 19.808C72.1907 19.784 71.0807 20.072 70.4807 20.672C69.8807 21.272 69.5807 22.388 69.5807 24.02V24.506H80.9747V24.02C80.9747 22.4 80.6747 21.296 80.0747 20.708C79.4867 20.108 78.3827 19.808 76.7627 19.808H73.8107ZM93.2937 35C92.8617 35 92.5317 34.892 92.3037 34.676C92.0757 34.448 91.9617 34.118 91.9617 33.686V13.652H84.7617C84.3297 13.652 83.9997 13.544 83.7717 13.328C83.5437 13.1 83.4297 12.77 83.4297 12.338C83.4297 11.906 83.5437 11.576 83.7717 11.348C83.9997 11.12 84.3297 11.006 84.7617 11.006H101.826C102.258 11.006 102.582 11.12 102.798 11.348C103.026 11.576 103.14 11.906 103.14 12.338C103.14 12.77 103.026 13.1 102.798 13.328C102.582 13.544 102.258 13.652 101.826 13.652H94.6077V33.686C94.6077 34.094 94.4937 34.418 94.2657 34.658C94.0377 34.886 93.7137 35 93.2937 35ZM105.778 35C104.89 35 104.446 34.556 104.446 33.668V18.476C104.446 17.6 104.89 17.162 105.778 17.162C106.654 17.162 107.092 17.6 107.092 18.476V20.348C107.776 19.304 108.676 18.512 109.792 17.972C110.92 17.432 112.228 17.162 113.716 17.162C114.604 17.162 115.048 17.6 115.048 18.476C115.048 19.364 114.604 19.808 113.716 19.808C111.616 19.808 110.008 20.228 108.892 21.068C107.776 21.896 107.176 23.03 107.092 24.47V33.668C107.092 34.556 106.654 35 105.778 35ZM124.647 35C122.307 35 120.573 34.442 119.445 33.326C118.329 32.21 117.771 30.488 117.771 28.16V24.02C117.771 21.656 118.329 19.922 119.445 18.818C120.573 17.702 122.307 17.15 124.647 17.162H127.599C129.939 17.162 131.667 17.72 132.783 18.836C133.899 19.952 134.457 21.68 134.457 24.02V28.124C134.457 30.464 133.899 32.198 132.783 33.326C131.667 34.442 129.939 35 127.599 35H124.647ZM120.417 28.16C120.417 29.756 120.717 30.854 121.317 31.454C121.917 32.054 123.027 32.354 124.647 32.354H127.599C129.219 32.354 130.323 32.054 130.911 31.454C131.511 30.854 131.811 29.744 131.811 28.124V24.02C131.811 22.4 131.511 21.296 130.911 20.708C130.323 20.108 129.219 19.808 127.599 19.808H124.647C123.567 19.808 122.721 19.934 122.109 20.186C121.497 20.438 121.059 20.87 120.795 21.482C120.543 22.094 120.417 22.94 120.417 24.02V28.16ZM147.165 34.01C147.021 34.358 146.823 34.61 146.571 34.766C146.319 34.922 146.007 35 145.635 35C144.951 35 144.465 34.652 144.177 33.956L137.877 19.034C137.505 18.206 137.739 17.63 138.579 17.306C139.359 16.946 139.935 17.18 140.307 18.008L146.337 32.282H145.023L151.557 17.954C151.737 17.594 151.977 17.354 152.277 17.234C152.589 17.114 152.937 17.138 153.321 17.306C154.113 17.678 154.329 18.266 153.969 19.07L147.165 34.01ZM160.073 27.152V28.16C160.073 29.756 160.373 30.854 160.973 31.454C161.573 32.054 162.683 32.354 164.303 32.354H167.255C168.575 32.354 169.541 32.216 170.153 31.94C170.777 31.652 171.179 31.154 171.359 30.446C171.455 30.05 171.605 29.744 171.809 29.528C172.025 29.312 172.343 29.204 172.763 29.204C173.207 29.204 173.543 29.324 173.771 29.564C173.999 29.792 174.077 30.128 174.005 30.572C173.777 32.072 173.099 33.188 171.971 33.92C170.855 34.64 169.283 35 167.255 35H164.303C161.963 35 160.229 34.442 159.101 33.326C157.985 32.21 157.427 30.488 157.427 28.16V24.02C157.427 21.644 157.985 19.904 159.101 18.8C160.229 17.684 161.963 17.138 164.303 17.162H167.255C169.595 17.162 171.323 17.72 172.439 18.836C173.555 19.94 174.113 21.668 174.113 24.02V25.82C174.113 26.708 173.675 27.152 172.799 27.152H160.073ZM164.303 19.808C162.683 19.784 161.573 20.072 160.973 20.672C160.373 21.272 160.073 22.388 160.073 24.02V24.506H171.467V24.02C171.467 22.4 171.167 21.296 170.567 20.708C169.979 20.108 168.875 19.808 167.255 19.808H164.303Z" fill="black"/>
<path d="M1.25 64.93C0.783333 64.7433 0.643333 64.42 0.83 63.96L5.66 52.24C5.82667 51.8533 6.1 51.66 6.48 51.66H6.53C6.91 51.68 7.17 51.8733 7.31 52.24L12.19 63.96C12.3767 64.42 12.2433 64.7433 11.79 64.93C11.33 65.11 11.01 64.9767 10.83 64.53L9.66 61.73H3.33L2.2 64.53C2.01333 64.9833 1.69667 65.1167 1.25 64.93ZM3.91 60.26H9.06L6.45 53.99L3.91 60.26ZM18.0177 65C16.7177 65 15.7543 64.69 15.1277 64.07C14.5077 63.4433 14.1977 62.48 14.1977 61.18V58.9C14.1977 57.6 14.5077 56.64 15.1277 56.02C15.7543 55.4 16.7177 55.09 18.0177 55.09H21.9977V51.72C21.9977 51.2333 22.2443 50.99 22.7377 50.99C23.2243 50.99 23.4677 51.2333 23.4677 51.72V64.26C23.4677 64.7533 23.2243 65 22.7377 65C22.2443 65 21.9977 64.7533 21.9977 64.26V63.88C21.691 64.2467 21.2777 64.5267 20.7577 64.72C20.2377 64.9067 19.5777 65 18.7777 65H18.0177ZM18.0177 63.53H18.7777C19.711 63.53 20.481 63.4 21.0877 63.14C21.6943 62.88 21.9977 62.4833 21.9977 61.95V56.56H18.0177C17.1177 56.56 16.501 56.73 16.1677 57.07C15.8343 57.4033 15.6677 58.0133 15.6677 58.9V61.18C15.6677 62.08 15.8343 62.6967 16.1677 63.03C16.5077 63.3633 17.1243 63.53 18.0177 63.53ZM38.233 55.08C39.433 55.08 40.293 55.37 40.813 55.95C41.333 56.53 41.593 57.4867 41.593 58.82V64.27C41.593 64.7567 41.3496 65 40.863 65C40.3696 65 40.123 64.7567 40.123 64.27V58.82C40.123 58.02 39.9763 57.4433 39.683 57.09C39.3896 56.73 38.9063 56.55 38.233 56.55H37.413C36.613 56.55 36.0396 56.73 35.693 57.09C35.353 57.4433 35.183 58.02 35.183 58.82V64.27C35.183 64.7567 34.9396 65 34.453 65C33.9596 65 33.713 64.7567 33.713 64.27V58.82C33.713 58.02 33.5663 57.4433 33.273 57.09C32.9796 56.73 32.4963 56.55 31.823 56.55H31.003C30.203 56.55 29.6296 56.73 29.283 57.09C28.943 57.4433 28.773 58.02 28.773 58.82V64.27C28.773 64.7567 28.5296 65 28.043 65C27.5496 65 27.303 64.7567 27.303 64.27V55.82C27.303 55.3333 27.5496 55.09 28.043 55.09C28.5296 55.09 28.773 55.3333 28.773 55.82V56.39C29.1063 55.9233 29.4796 55.59 29.893 55.39C30.313 55.1833 30.823 55.08 31.423 55.08H31.823C32.6096 55.08 33.2296 55.2 33.683 55.44C34.143 55.6733 34.4963 56.0533 34.743 56.58C35.0763 56.04 35.4463 55.6567 35.853 55.43C36.2596 55.1967 36.7796 55.08 37.413 55.08H38.233ZM45.898 53.39C45.3246 53.39 45.038 53.0967 45.038 52.51V51.97C45.038 51.3967 45.3246 51.11 45.898 51.11H46.438C46.9913 51.11 47.268 51.3967 47.268 51.97V52.51C47.268 53.0967 46.9913 53.39 46.438 53.39H45.898ZM46.168 65C45.6746 65 45.428 64.7533 45.428 64.26V55.82C45.428 55.3333 45.6746 55.09 46.168 55.09C46.6546 55.09 46.898 55.3333 46.898 55.82V64.26C46.898 64.7533 46.6546 65 46.168 65ZM51.6563 65C51.1629 65 50.9163 64.7533 50.9163 64.26V55.82C50.9163 55.3333 51.1629 55.09 51.6563 55.09C52.1429 55.09 52.3863 55.3333 52.3863 55.82V56.36C53.0663 55.5133 54.1429 55.09 55.6163 55.09H56.1763C57.4763 55.09 58.4363 55.4 59.0563 56.02C59.6763 56.64 59.9863 57.6 59.9863 58.9V64.26C59.9863 64.7533 59.7429 65 59.2563 65C58.7629 65 58.5163 64.7533 58.5163 64.26V58.9C58.5163 58 58.3463 57.3867 58.0063 57.06C57.6729 56.7267 57.0629 56.56 56.1763 56.56H55.6163C54.7363 56.56 53.9996 56.6767 53.4063 56.91C52.8129 57.1367 52.4729 57.4967 52.3863 57.99V64.26C52.3863 64.7533 52.1429 65 51.6563 65ZM70.4063 65C69.9129 65 69.6663 64.7533 69.6663 64.26V52.4C69.6663 51.9067 69.9129 51.66 70.4063 51.66H75.0863C76.2796 51.66 77.1896 51.9767 77.8163 52.61C78.4429 53.2367 78.7563 54.1467 78.7563 55.34V55.94C78.7563 57.1333 78.4429 58.0433 77.8163 58.67C77.1896 59.2967 76.2796 59.61 75.0863 59.61H71.1363V64.26C71.1363 64.7533 70.8929 65 70.4063 65ZM71.1363 58.14H75.0863C75.8729 58.14 76.4363 57.97 76.7763 57.63C77.1163 57.29 77.2863 56.7267 77.2863 55.94V55.34C77.2863 54.5533 77.1163 53.99 76.7763 53.65C76.4363 53.3033 75.8729 53.13 75.0863 53.13H71.1363V58.14ZM84.6003 65C83.507 65 82.697 64.7367 82.1703 64.21C81.6436 63.6833 81.3803 62.8733 81.3803 61.78C81.3803 60.6867 81.6403 59.8767 82.1603 59.35C82.687 58.8233 83.5003 58.56 84.6003 58.56H88.9303C88.9036 57.8 88.717 57.2767 88.3703 56.99C88.0236 56.7033 87.4336 56.56 86.6003 56.56H85.4403C84.7136 56.56 84.1736 56.62 83.8203 56.74C83.4736 56.86 83.2403 57.07 83.1203 57.37C83.027 57.61 82.9236 57.78 82.8103 57.88C82.7036 57.9733 82.537 58.02 82.3103 58.02C82.0636 58.02 81.8703 57.9533 81.7303 57.82C81.597 57.68 81.557 57.4967 81.6103 57.27C81.7703 56.5167 82.1636 55.9667 82.7903 55.62C83.417 55.2667 84.3003 55.09 85.4403 55.09H86.6003C87.9003 55.09 88.8603 55.4 89.4803 56.02C90.1003 56.64 90.4103 57.6 90.4103 58.9V64.26C90.4103 64.7533 90.167 65 89.6803 65C89.187 65 88.9403 64.7533 88.9403 64.26V63.63C88.2536 64.5433 87.1803 65 85.7203 65H84.6003ZM84.6003 63.53H85.7203C86.2603 63.53 86.757 63.4767 87.2103 63.37C87.6636 63.2633 88.0436 63.0767 88.3503 62.81C88.657 62.5433 88.8536 62.17 88.9403 61.69V60.03H84.6003C83.9136 60.03 83.4503 60.1533 83.2103 60.4C82.9703 60.64 82.8503 61.1 82.8503 61.78C82.8503 62.4667 82.9703 62.93 83.2103 63.17C83.4503 63.41 83.9136 63.53 84.6003 63.53ZM94.9766 65C94.4832 65 94.2366 64.7533 94.2366 64.26V55.82C94.2366 55.3333 94.4832 55.09 94.9766 55.09C95.4632 55.09 95.7066 55.3333 95.7066 55.82V56.36C96.3866 55.5133 97.4632 55.09 98.9366 55.09H99.4966C100.797 55.09 101.757 55.4 102.377 56.02C102.997 56.64 103.307 57.6 103.307 58.9V64.26C103.307 64.7533 103.063 65 102.577 65C102.083 65 101.837 64.7533 101.837 64.26V58.9C101.837 58 101.667 57.3867 101.327 57.06C100.993 56.7267 100.383 56.56 99.4966 56.56H98.9366C98.0566 56.56 97.3199 56.6767 96.7266 56.91C96.1332 57.1367 95.7932 57.4967 95.7066 57.99V64.26C95.7066 64.7533 95.4632 65 94.9766 65ZM108.187 60.64V61.2C108.187 62.0867 108.354 62.6967 108.687 63.03C109.021 63.3633 109.637 63.53 110.537 63.53H112.177C112.911 63.53 113.447 63.4533 113.787 63.3C114.134 63.14 114.357 62.8633 114.457 62.47C114.511 62.25 114.594 62.08 114.707 61.96C114.827 61.84 115.004 61.78 115.237 61.78C115.484 61.78 115.671 61.8467 115.797 61.98C115.924 62.1067 115.967 62.2933 115.927 62.54C115.801 63.3733 115.424 63.9933 114.797 64.4C114.177 64.8 113.304 65 112.177 65H110.537C109.237 65 108.274 64.69 107.647 64.07C107.027 63.45 106.717 62.4933 106.717 61.2V58.9C106.717 57.58 107.027 56.6133 107.647 56C108.274 55.38 109.237 55.0767 110.537 55.09H112.177C113.477 55.09 114.437 55.4 115.057 56.02C115.677 56.6333 115.987 57.5933 115.987 58.9V59.9C115.987 60.3933 115.744 60.64 115.257 60.64H108.187ZM110.537 56.56C109.637 56.5467 109.021 56.7067 108.687 57.04C108.354 57.3733 108.187 57.9933 108.187 58.9V59.17H114.517V58.9C114.517 58 114.351 57.3867 114.017 57.06C113.691 56.7267 113.077 56.56 112.177 56.56H110.537ZM122.518 65C121.525 65 120.788 64.76 120.308 64.28C119.828 63.7933 119.588 63.0533 119.588 62.06V51.72C119.588 51.2333 119.835 50.99 120.328 50.99C120.815 50.99 121.058 51.2333 121.058 51.72V62.06C121.058 62.64 121.155 63.03 121.348 63.23C121.548 63.43 121.938 63.53 122.518 63.53C123.018 63.53 123.268 63.7733 123.268 64.26C123.281 64.7533 123.031 65 122.518 65Z" fill="#FC5245"/>
</svg>
