<svg width="230" height="230" viewBox="0 0 230 230" fill="none" xmlns="http://www.w3.org/2000/svg">
<rect x="0.5" y="0.5" width="229" height="229" rx="22.5" fill="#F2F2F2" stroke="#4D4D4D"/>
<path d="M118.181 124V102.571H128.896L115.503 81.1429L102.109 102.571H112.824V124H99.4301V123.821C98.9801 123.857 98.5515 124 98.0907 124C92.7623 124 87.6522 121.178 83.8844 116.155C80.1167 111.131 78 104.318 78 97.2143C78 83.4714 85.7952 72.2714 95.7977 70.7357C96.6747 64.6235 99.1217 59.1098 102.718 55.1429C106.314 51.1759 110.835 49.0038 115.503 49C120.171 49.0035 124.692 51.1754 128.29 55.1422C131.887 59.1091 134.335 64.6229 135.213 70.7357C145.216 72.2714 153 83.4714 153 97.2143C153 104.318 150.883 111.131 147.116 116.155C143.348 121.178 138.238 124 132.909 124C132.459 124 132.025 123.857 131.57 123.821V124H118.181Z" fill="#C5C5C5"/>
<path d="M77.075 164.25C75.1667 164.25 73.7542 163.796 72.8375 162.887C71.9292 161.971 71.475 160.558 71.475 158.65V148.35C71.475 148 71.5625 147.737 71.7375 147.562C71.9125 147.387 72.175 147.3 72.525 147.3C72.875 147.3 73.1375 147.387 73.3125 147.562C73.4875 147.737 73.575 148 73.575 148.35V158.65C73.575 159.542 73.6792 160.242 73.8875 160.75C74.1042 161.258 74.4667 161.621 74.975 161.837C75.4833 162.046 76.1833 162.15 77.075 162.15H80.075C80.9667 162.15 81.6667 162.046 82.175 161.837C82.6833 161.621 83.0417 161.258 83.25 160.75C83.4667 160.242 83.575 159.542 83.575 158.65V148.35C83.575 148 83.6625 147.737 83.8375 147.562C84.0125 147.387 84.275 147.3 84.625 147.3C84.975 147.3 85.2375 147.387 85.4125 147.562C85.5875 147.737 85.675 148 85.675 148.35V158.65C85.675 160.558 85.2208 161.971 84.3125 162.887C83.4042 163.796 81.9917 164.25 80.075 164.25H77.075ZM91.7906 169.25C91.0906 169.25 90.7406 168.9 90.7406 168.2V152.625C90.7406 151.925 91.0906 151.575 91.7906 151.575C92.4906 151.575 92.8406 151.925 92.8406 152.625V152.937C93.2906 152.487 93.8448 152.15 94.5031 151.925C95.1698 151.692 95.9156 151.575 96.7406 151.575H97.6906C99.3573 151.575 100.591 151.975 101.391 152.775C102.191 153.575 102.591 154.808 102.591 156.475V159.35C102.591 161.008 102.191 162.242 101.391 163.05C100.591 163.85 99.3573 164.25 97.6906 164.25H92.8406V168.2C92.8406 168.9 92.4906 169.25 91.7906 169.25ZM92.8406 162.15H97.6906C98.7823 162.15 99.5198 161.954 99.9031 161.562C100.295 161.171 100.491 160.433 100.491 159.35V156.475C100.491 155.383 100.295 154.646 99.9031 154.262C99.5198 153.871 98.7823 153.675 97.6906 153.675H96.7406C95.699 153.675 94.799 153.8 94.0406 154.05C93.2823 154.3 92.8823 154.696 92.8406 155.237V162.15ZM110.971 164.25C109.696 164.25 108.746 163.937 108.121 163.312C107.504 162.679 107.196 161.725 107.196 160.45V147.7C107.196 147 107.546 146.65 108.246 146.65C108.946 146.65 109.296 147 109.296 147.7V160.45C109.296 161.125 109.404 161.579 109.621 161.812C109.846 162.037 110.296 162.15 110.971 162.15C111.687 162.15 112.046 162.5 112.046 163.2C112.071 163.9 111.712 164.25 110.971 164.25ZM119.577 164.25C117.918 164.25 116.685 163.85 115.877 163.05C115.077 162.25 114.677 161.025 114.677 159.375V156.475C114.677 154.8 115.077 153.567 115.877 152.775C116.685 151.975 117.918 151.575 119.577 151.575H121.627C123.293 151.575 124.527 151.975 125.327 152.775C126.127 153.575 126.527 154.808 126.527 156.475V159.35C126.527 161.008 126.127 162.242 125.327 163.05C124.527 163.85 123.293 164.25 121.627 164.25H119.577ZM116.777 159.375C116.777 160.45 116.973 161.183 117.364 161.575C117.756 161.958 118.493 162.15 119.577 162.15H121.627C122.718 162.15 123.456 161.954 123.839 161.562C124.231 161.171 124.427 160.433 124.427 159.35V156.475C124.427 155.383 124.231 154.646 123.839 154.262C123.456 153.871 122.718 153.675 121.627 153.675H119.577C118.852 153.675 118.285 153.758 117.877 153.925C117.477 154.083 117.193 154.367 117.027 154.775C116.86 155.175 116.777 155.742 116.777 156.475V159.375ZM135.021 164.25C133.621 164.25 132.58 163.908 131.896 163.225C131.213 162.542 130.871 161.5 130.871 160.1C130.871 158.7 131.209 157.658 131.884 156.975C132.567 156.292 133.613 155.95 135.021 155.95H140.309C140.259 155.075 140.03 154.479 139.621 154.162C139.213 153.837 138.513 153.675 137.521 153.675H136.071C135.238 153.675 134.617 153.733 134.209 153.85C133.801 153.958 133.513 154.158 133.346 154.45C133.196 154.8 133.042 155.042 132.884 155.175C132.726 155.308 132.488 155.375 132.171 155.375C131.821 155.375 131.546 155.279 131.346 155.087C131.146 154.887 131.088 154.625 131.171 154.3C131.421 153.358 131.942 152.671 132.734 152.237C133.534 151.796 134.646 151.575 136.071 151.575H137.521C139.188 151.575 140.421 151.975 141.221 152.775C142.021 153.575 142.421 154.808 142.421 156.475V163.2C142.421 163.9 142.071 164.25 141.371 164.25C140.671 164.25 140.321 163.9 140.321 163.2V162.637C139.43 163.712 138.13 164.25 136.421 164.25H135.021ZM135.021 162.15H136.421C137.038 162.15 137.617 162.096 138.159 161.987C138.701 161.871 139.163 161.662 139.546 161.362C139.938 161.062 140.196 160.633 140.321 160.075V158.05H135.021C134.196 158.05 133.646 158.187 133.371 158.462C133.105 158.737 132.971 159.283 132.971 160.1C132.971 160.925 133.105 161.475 133.371 161.75C133.646 162.017 134.196 162.15 135.021 162.15ZM151.681 164.25C150.023 164.25 148.79 163.85 147.981 163.05C147.181 162.242 146.781 161.008 146.781 159.35V156.475C146.781 154.808 147.181 153.575 147.981 152.775C148.79 151.975 150.023 151.575 151.681 151.575H156.531V147.7C156.531 147 156.881 146.65 157.581 146.65C158.281 146.65 158.631 147 158.631 147.7V163.2C158.631 163.9 158.281 164.25 157.581 164.25C156.881 164.25 156.531 163.9 156.531 163.2V163.025C156.14 163.425 155.627 163.729 154.994 163.937C154.36 164.146 153.573 164.25 152.631 164.25H151.681ZM151.681 162.15H152.631C153.731 162.15 154.656 162.008 155.406 161.725C156.156 161.442 156.531 161.008 156.531 160.425V153.675H151.681C150.598 153.675 149.86 153.875 149.469 154.275C149.077 154.667 148.881 155.4 148.881 156.475V159.35C148.881 160.433 149.077 161.171 149.469 161.562C149.869 161.954 150.606 162.15 151.681 162.15Z" fill="#4D4D4D"/>
</svg>
